<svg xmlns="http://www.w3.org/2000/svg" xml:space="preserve" width="64" height="64" fill="#19042b" transform="scale(-1 1)" viewBox="0 0 360 360">
  <path d="M205 25C119.533 25 50 94.533 50 180c0 40.473 15.599 77.365 41.092 105H0v50h210v-.089c83.162-2.65 150-71.117 150-154.911 0-85.467-69.533-155-155-155zm-88.269 192.83c-20.893 0-37.83-16.937-37.83-37.83s16.937-37.83 37.83-37.83 37.83 16.937 37.83 37.83-16.937 37.83-37.83 37.83zM205 306.099c-20.893 0-37.83-16.937-37.83-37.83s16.937-37.83 37.83-37.83 37.83 16.937 37.83 37.83-16.937 37.83-37.83 37.83zm0-176.539c-20.893 0-37.83-16.937-37.83-37.83 0-20.893 16.937-37.83 37.83-37.83s37.83 16.937 37.83 37.83c0 20.893-16.937 37.83-37.83 37.83zm88.269 88.27c-20.893 0-37.83-16.937-37.83-37.83s16.937-37.83 37.83-37.83 37.83 16.937 37.83 37.83-16.937 37.83-37.83 37.83z"/>
</svg>
